<!--?xml version="1.0" encoding="utf-8"?-->
<!-- Generator: Adobe Illustrator 18.1.1, SVG Export Plug-In . SVG Version: 6.00 Build 0)  -->

<svg version="1.1" id="_x31_0" xmlns="http://www.w3.org/2000/svg" xmlns:xlink="http://www.w3.org/1999/xlink" x="0px" y="0px" viewBox="0 0 512 512" style="width: 256px; height: 256px; opacity: 1;" xml:space="preserve">
<style type="text/css">
	.st0{fill:#374149;}
</style>
<g>
	<path class="st0" d="M423.9,151.41l-292.746,93.633l-66.442-35.543l-33.449,12.668l-13.199,4.93l0.05,0.051l-0.164,0.062
		l26.152,27.133l12.676,13.262L7.627,280.362c-4.786,1.45-7.778,5.442-7.622,10.164c0.266,7.973,9.305,14.965,17.527,16.875
		c8.59,1.996,121.145,14.293,125.246,14.934l1.664,0.258l68.734-19.473l39.023-10.965L204.373,430.03l58.394-20.246
		c2.633-0.863,5.039-2.222,7.145-4.038c2.004-1.73,3.645-3.805,4.871-6.153l91.414-139.832l85.254-24.156
		c42.535-12.918,59.503-39.699,60.527-54.547C513.154,164.046,466.486,140.937,423.9,151.41z" style="fill: rgb(75, 75, 75);"></path>
	<path class="st0" d="M221.022,187.101l67.426-20.473l52.656-15.863l-0.187-0.07l0.246-0.078L175.248,84.316
		c-2.355-1.219-4.886-1.973-7.523-2.238c-2.766-0.282-5.516-0.012-8.168,0.797l-36.828,10.504l-22.512,6.316l0.102,0.074
		l-0.195,0.054L221.022,187.101z" style="fill: rgb(75, 75, 75);"></path>
</g>
</svg>
